<?xml version="1.0" encoding="UTF-8"?> <svg xmlns="http://www.w3.org/2000/svg" width="238" height="57" viewBox="0 0 238 57" fill="none"><path d="M98.8201 14.3865H97.3133C96.9828 14.3865 96.6859 14.6217 96.6299 14.9466C96.5683 15.2939 96.5347 15.6636 96.5347 16.0445C96.5347 16.431 96.5683 16.7951 96.6299 17.1424C96.6859 17.4673 96.9828 17.7026 97.3133 17.7026H98.8201C98.6464 17.2264 98.5456 16.6551 98.5456 16.0445C98.5456 15.434 98.6464 14.8682 98.8201 14.3865Z" fill="#EE7540"></path><path d="M95.7168 16.0505C95.7168 15.2887 95.8288 14.5941 96.0193 14.0451H31.5182C31.3222 14.0395 31.1317 14.0339 30.9357 14.0339C30.3755 14.0451 29.8378 14.0507 29.272 14.1068C28.1405 14.2244 27.0707 14.3476 25.9335 14.6165C23.6762 15.1654 21.542 15.9272 19.5031 17.126C18.4836 17.7253 17.5313 18.4927 16.6687 19.3329C15.8061 20.1732 15.1283 21.1254 14.4897 22.1729C14.3721 22.3689 14.1816 22.7106 14.064 22.9403C13.9464 23.17 13.7951 23.5228 13.7055 23.7245C13.6159 23.9261 13.5879 23.971 13.5207 24.1446C13.4535 24.3127 13.4423 24.3631 13.3694 24.5703C13.2966 24.7776 13.1678 25.1193 13.0894 25.3769C13.0109 25.6346 12.9381 25.9315 12.8653 26.2004C12.7925 26.4692 12.7197 26.7493 12.6692 27.0238C12.5684 27.5727 12.462 28.1217 12.406 28.6762C12.35 29.2308 12.2939 29.7741 12.2883 30.3286C12.2827 30.6031 12.2659 30.8776 12.2771 31.1577C12.2827 31.4377 12.2996 31.7122 12.3108 31.9923C12.322 32.2724 12.3444 32.5468 12.3724 32.8269C12.406 33.1014 12.4228 33.387 12.4676 33.6615C12.5628 34.2161 12.6468 34.7706 12.7925 35.314C13.0782 36.4006 13.4479 37.4705 13.9464 38.4676C14.4449 39.4703 15.0163 40.4337 15.7053 41.2907C17.0888 43.0048 18.6852 44.394 20.5169 45.5815C21.43 46.1752 22.343 46.5953 23.3121 47.0547C23.5137 47.1499 23.7098 47.2171 23.9114 47.3067C23.9114 46.4217 23.9114 45.5423 23.9114 44.6628C22.7575 44.0299 21.6764 43.2176 20.6738 42.2206C17.901 39.4479 16.5175 36.1094 16.5175 32.2051C16.5175 28.3121 17.901 24.968 20.6738 22.1729C23.4577 19.389 26.5441 18.067 30.4259 18.067H30.6556C30.8012 18.067 30.9469 18.0726 31.0925 18.0782H96.0137C95.8288 17.5069 95.7168 16.8067 95.7168 16.0505Z" fill="#EE7540"></path><path d="M35.12 46.6118H31.8544C29.8714 46.6118 28.8688 47.4184 28.8688 49.0149V49.2949H30.2019V49.0149C30.2019 48.4883 30.3308 47.9226 31.8432 47.9226H35.1088C36.4812 47.9226 36.8173 48.2531 36.8173 49.6198V49.9279H30.3756V51.2386H36.8173V51.7876C36.8173 53.0647 36.4644 53.3952 35.1088 53.3952H31.8432C30.3252 53.3952 30.2019 52.9079 30.2019 52.3253V52.0453H28.8688V52.3253C28.8688 53.9498 29.8154 54.7116 31.8544 54.7116H35.12C37.271 54.7116 38.1504 53.8657 38.1504 51.7932V49.6254C38.1504 47.4856 37.271 46.6118 35.12 46.6118Z" fill="#EE7540"></path><path d="M50.541 49.9276H44.4914V46.7012H43.1582V54.7057H44.4914V51.244H50.541V54.7057H51.8741V46.7012H50.541V49.9276Z" fill="#EE7540"></path><path d="M56.7306 54.7057H63.8949V53.3949H58.0637V51.2328H63.7436V49.9164H58.0637V48.0119H63.8949V46.7012H56.7306V54.7057Z" fill="#EE7540"></path><path d="M74.1958 46.7012H68.8912V54.7113H70.2244V51.6305H74.207C76.0387 51.6305 77.0974 51.244 77.0974 49.2779C77.0918 47.4686 76.2292 46.7012 74.1958 46.7012ZM75.7587 49.1994C75.7587 50.1181 75.5346 50.3141 74.5039 50.3141H70.2244V48.0063H74.4311C75.4898 48.0119 75.7587 48.2528 75.7587 49.1994Z" fill="#EE7540"></path><path d="M81.9092 54.7057H83.2423V48.0119H88.855V46.7012H81.9092V54.7057Z" fill="#EE7540"></path><path d="M95.0392 53.1653V46.7012H93.7061V54.7057H95.3697L101.156 47.9783V54.7057H102.484V46.7012H100.585L95.0392 53.1653Z" fill="#EE7540"></path><path d="M107.194 49.2781C107.194 50.628 107.867 51.4234 109.144 51.5915L106.584 54.7059H108.388L110.768 51.6251H114.062V54.7059H115.395V46.6958H110.09C108.063 46.7014 107.194 47.4688 107.194 49.2781ZM114.062 48.0121V50.32H109.855C108.724 50.32 108.522 50.1631 108.522 49.2781C108.522 48.309 108.813 48.0121 109.777 48.0121H114.062Z" fill="#EE7540"></path><path d="M133.359 49.782H129.376V48.0119H135.611V46.7012H128.043V54.7113H133.639C135.515 54.7113 136.249 54.0223 136.249 52.2634C136.249 50.2021 135.095 49.782 133.359 49.782ZM134.916 52.2802C134.916 53.1989 134.692 53.3949 133.661 53.3949H129.382V51.0871H133.588C134.642 51.0927 134.916 51.3336 134.916 52.2802Z" fill="#EE7540"></path><path d="M144.931 51.6699L141.755 46.6958H140.193L144.164 52.807C143.856 53.2943 143.694 53.3896 143.055 53.3896H142.506V54.7003H143.044C144.427 54.7003 144.887 54.241 145.99 52.4205L149.446 46.6958H147.867L144.931 51.6699Z" fill="#EE7540"></path><path d="M162.296 46.7012H154.381V51.7705C154.381 52.4931 154.146 52.986 153.603 53.4005H153.02V56.7278H154.308V54.7113H161.618V56.7278H162.907V53.4005H162.296V46.7012ZM160.963 48.0119V53.4005H155.272C155.647 52.818 155.714 52.045 155.714 51.5689V48.0175H160.963V48.0119Z" fill="#EE7540"></path><path d="M171.555 51.6699L168.379 46.6958H166.817L170.788 52.807C170.48 53.2943 170.317 53.3896 169.679 53.3896H169.13V54.7003H169.668C171.051 54.7003 171.511 54.241 172.614 52.4205L176.07 46.6958H174.491L171.555 51.6699Z" fill="#EE7540"></path><path d="M192.292 46.7012H190.959V53.3949H187.043V46.7012H185.71V53.3949H181.795V46.7012H180.462V54.7057H191.625V56.7502H192.925V53.3949H192.292V46.7012Z" fill="#EE7540"></path><path d="M197.417 54.7057H204.576V53.3949H198.751V51.2328H204.425V49.9164H198.751V48.0119H204.576V46.7012H197.417V54.7057Z" fill="#EE7540"></path><path d="M209.64 54.7057H210.973V48.0119H216.586V46.7012H209.64V54.7057Z" fill="#EE7540"></path><path d="M227.682 46.6116H224.417C222.221 46.6116 221.369 47.435 221.369 49.5523V51.8714C221.369 53.9103 222.226 54.7057 224.417 54.7057H227.682C229.693 54.7057 230.645 54.28 230.645 51.8714V49.5523C230.645 47.1045 229.514 46.6116 227.682 46.6116ZM229.312 49.4907V51.8714C229.312 53.1653 229.066 53.395 227.671 53.395H224.405C223.05 53.395 222.697 53.0813 222.697 51.8714V49.4907C222.697 48.2752 223.078 47.9223 224.405 47.9223H227.671C229.021 47.9223 229.312 48.2024 229.312 49.4907Z" fill="#EE7540"></path><path d="M30.1403 42.6857C27.2388 42.6745 24.7629 41.6551 22.7128 39.6217C20.6514 37.5604 19.6263 35.0845 19.6263 32.183C19.6263 29.2926 20.657 26.8055 22.7128 24.733C24.7797 22.6661 27.0763 21.6858 29.9555 21.6858H30.1235C32.9691 21.6858 35.4617 22.7109 37.5847 24.761L34.6103 27.7354C33.3556 26.4975 31.8712 25.8813 30.1459 25.8813C28.3983 25.8813 26.9139 26.4975 25.6927 27.7354C24.4548 28.9901 23.8387 30.4745 23.8387 32.1998C23.8387 33.9418 24.4548 35.4318 25.6927 36.6641C26.9195 37.8909 28.4039 38.507 30.1459 38.507C31.8936 38.507 33.3892 37.8909 34.6215 36.6529L37.5959 39.6273C35.5457 41.6663 33.0587 42.6857 30.1403 42.6857Z" fill="#175884"></path><path d="M51.9133 21.7471V25.9034H43.5783V30.0877H49.8295V34.244H43.5783V38.4283H51.9189V42.5734H39.4052V21.7471H51.9133Z" fill="#175884"></path><path d="M64.9872 29.0289C64.8248 29.4994 64.6287 29.9363 64.4103 30.3396C64.6959 30.4797 64.9704 30.6365 65.2449 30.8157C65.5698 31.0286 65.8218 31.2247 66.0067 31.3927C67.267 32.6698 67.9 34.2046 67.9 35.9971C67.9 37.8008 67.267 39.3356 66.0067 40.6015C64.7464 41.8899 63.2172 42.534 61.4247 42.534H53.717V21.7974H59.509C61.111 21.7974 62.4834 22.3743 63.6261 23.5226C64.7239 24.6373 65.2729 25.9537 65.2729 27.4717C65.2729 27.931 65.1777 28.4463 64.9872 29.0289ZM60.7413 26.3794C60.3996 26.0265 59.9851 25.8528 59.5034 25.8528H57.8677V29.6506C58.2374 29.6338 58.7584 29.6002 59.4249 29.5498C59.9403 29.4882 60.366 29.2865 60.7133 28.9448C61.0718 28.592 61.251 28.1606 61.251 27.6453C61.2566 27.1636 61.0886 26.7379 60.7413 26.3794ZM61.4247 38.4786C62.0913 38.4786 62.6626 38.2321 63.1387 37.7448C63.6037 37.263 63.8333 36.6861 63.8333 36.0083C63.8333 35.3305 63.5924 34.7424 63.1107 34.2438C62.6402 33.7621 62.0744 33.5045 61.4247 33.4596C60.9261 33.4316 60.3324 33.426 59.649 33.4316H58.7864C58.4167 33.4428 58.1142 33.4428 57.8733 33.4428V38.473H61.4247V38.4786Z" fill="#175884"></path><path d="M82.2061 21.7471V25.9034H73.8655V30.0877H80.1167V34.244H73.8655V38.4283H82.2061V42.5734H69.698V21.7471H82.2061Z" fill="#175884"></path><path d="M84.0096 21.7974H91.2916C93.3081 21.7974 95.0222 22.5032 96.4393 23.9203C97.8733 25.3431 98.5903 27.0628 98.5903 29.0681C98.5903 31.0902 97.8733 32.7987 96.4393 34.1878C95.0053 35.605 93.2913 36.3108 91.2916 36.3108H88.1771V42.5396H84.0096V21.7974ZM93.493 26.8667C92.8768 26.2393 92.143 25.9257 91.2916 25.9257H88.1771V32.1769L91.2916 32.1881C92.143 32.1881 92.8768 31.88 93.493 31.2639C94.1091 30.6477 94.4172 29.9139 94.4172 29.0625C94.4172 28.2111 94.1091 27.4885 93.493 26.8667Z" fill="#175884"></path><path d="M110.129 42.6852C107.228 42.674 104.752 41.6546 102.702 39.6212C100.64 37.5599 99.6154 35.084 99.6154 32.1825C99.6154 29.2921 100.646 26.8051 102.702 24.7325C104.769 22.6656 106.987 21.6853 109.872 21.6853H110.118C112.964 21.6853 115.456 22.7104 117.579 24.7605L114.605 27.7349C113.35 26.497 111.866 25.8808 110.141 25.8808C108.393 25.8808 106.908 26.497 105.687 27.7349C104.449 28.9896 103.833 30.474 103.833 32.1993C103.833 33.9413 104.449 35.4313 105.687 36.6637C106.914 37.8904 108.398 38.5065 110.141 38.5065C111.888 38.5065 113.384 37.8904 114.616 36.6525L117.591 39.6268C115.535 41.6658 113.048 42.6852 110.129 42.6852Z" fill="#175884"></path><path d="M123.551 21.7974V30.9726L128.866 21.7974H133.678L127.544 32.3393L134.675 42.5452H129.606L123.556 33.8461V42.5452H119.4V21.7974H123.551Z" fill="#175884"></path><path d="M140.629 21.7974V30.9726L145.945 21.7974H150.757L144.618 32.3337L151.748 42.5396H146.679L140.629 33.8405V42.5396H136.473V21.7974H140.629Z" fill="#3D3D3D"></path><path d="M162.234 21.3772L171.706 42.5452H167.192L165.791 39.3916H158.688L157.288 42.5452H152.785L162.234 21.3772ZM164.139 35.7114L162.245 31.3254L160.33 35.7114H164.139Z" fill="#3D3D3D"></path><path d="M177.678 28.0262H180.792C182.792 28.0262 184.506 28.732 185.94 30.1492C187.374 31.5383 188.091 33.2468 188.091 35.2689C188.091 37.2743 187.374 38.9939 185.94 40.4167C184.523 41.8339 182.809 42.5396 180.792 42.5396H173.51V21.7974H186.018V25.9425H177.678V28.0262ZM177.678 38.4114H180.792C181.643 38.4114 182.377 38.0977 182.993 37.4703C183.61 36.8541 183.918 36.1203 183.918 35.2689C183.918 34.4175 183.61 33.6837 182.993 33.0675C182.377 32.4514 181.643 32.1433 180.792 32.1433L177.678 32.1545V38.4114Z" fill="#3D3D3D"></path><path d="M202.397 21.7471V25.9034H194.056V30.0877H200.308V34.244H194.056V38.4283H202.397V42.5734H189.889V21.7471H202.397Z" fill="#3D3D3D"></path><path d="M222.176 42.4666H217.712L212.771 31.3981L207.842 42.4666H203.428L212.782 21.8027L222.176 42.4666Z" fill="#3D3D3D"></path><path d="M223.419 21.7974H227.587V28.0262H230.701C232.701 28.0262 234.415 28.732 235.849 30.1492C237.283 31.5383 238 33.2468 238 35.2689C238 37.2743 237.283 38.9939 235.849 40.4167C234.432 41.8339 232.718 42.5396 230.701 42.5396H223.419V21.7974ZM233.827 35.2745C233.827 34.4231 233.519 33.6893 232.903 33.0731C232.286 32.457 231.553 32.1489 230.701 32.1489L227.587 32.1601V38.4114H230.701C231.553 38.4114 232.286 38.0977 232.903 37.4703C233.519 36.8541 233.827 36.1203 233.827 35.2745Z" fill="#3D3D3D"></path><path d="M39.4051 0.590332H37.5902C37.1925 0.590332 36.8396 0.870406 36.7668 1.26251C36.694 1.67702 36.6492 2.12514 36.6492 2.58446C36.6492 3.04378 36.6884 3.4919 36.7668 3.90641C36.8396 4.29851 37.1869 4.57859 37.5902 4.57859H39.4051C39.1978 4.00163 39.0746 3.31825 39.0746 2.58446C39.0746 1.85066 39.1978 1.16168 39.4051 0.590332Z" fill="#175884"></path><path d="M69.698 7.68164H67.8383C67.4294 7.68164 67.0709 7.96732 66.9981 8.37062C66.9197 8.79633 66.8805 9.25005 66.8805 9.72618C66.8805 10.1967 66.9253 10.6504 66.9981 11.0817C67.0709 11.485 67.4294 11.7707 67.8383 11.7707H69.698C69.4852 11.1826 69.3619 10.4824 69.3619 9.72618C69.3619 8.97558 69.4852 8.2754 69.698 7.68164Z" fill="#3D3D3D"></path><path d="M66.0906 9.7483C66.0906 8.68402 66.3091 7.74857 66.6508 7.16602H32.9859C32.801 7.16602 32.6162 7.16602 32.4313 7.17162C31.6807 7.19962 30.9357 7.25004 30.1907 7.31726C28.7007 7.45729 27.222 7.66455 25.7488 7.97263C22.808 8.58879 19.8896 9.55785 17.1617 11.0422C14.4394 12.521 11.9075 14.5768 10.0198 17.1647C8.12651 19.7413 6.92779 22.8053 6.42926 25.8245C5.88592 28.8101 5.8355 31.975 6.54689 35.0222C6.89978 36.5402 7.43192 38.019 8.13211 39.4025C8.8379 40.7861 9.69492 42.0744 10.6696 43.2451C11.6442 44.4215 12.7253 45.4745 13.8904 46.4156C15.0499 47.3566 16.2711 48.2025 17.5482 48.9362C18.8197 49.67 20.1361 50.3142 21.4804 50.8744C22.1526 51.1544 22.8304 51.4121 23.525 51.6474C23.6594 51.6922 23.7938 51.7314 23.9227 51.7762V49.3003C23.4522 49.0819 22.9872 48.8578 22.5335 48.617C21.3348 47.9896 20.1753 47.295 19.0774 46.522C16.8816 44.9928 14.9155 43.1835 13.4031 41.0998C11.8907 39.0216 10.86 36.6746 10.4343 34.21C10.0142 31.7453 10.143 29.1854 10.72 26.676C11.2801 24.1833 12.2996 21.9315 13.8176 20.0382C14.2825 19.4557 14.7699 18.8675 15.2684 18.3578C15.5541 18.0665 15.8117 17.8536 16.075 17.6016C16.9376 16.7614 17.8899 15.9939 18.9094 15.3946C20.9483 14.2015 23.0769 13.4341 25.3399 12.8851C26.4714 12.6107 27.5412 12.4874 28.6783 12.3754C29.2441 12.3194 30.6164 12.2746 30.6164 12.2746H66.634C66.3035 11.7088 66.0906 10.7846 66.0906 9.7483Z" fill="#3D3D3D"></path><path d="M35.9042 2.59538C35.9042 1.5367 36.1227 0.595649 36.4588 0.0186968L34.1117 0.00189238C33.2715 -0.0037091 32.4313 0.00189238 31.5967 0.0355013C29.6305 0.113922 27.6588 0.293169 25.7039 0.601251C21.7997 1.23422 17.9011 2.34331 14.2545 4.1974C10.6191 6.04029 7.28065 8.7458 4.87761 12.1627C3.6789 13.8656 2.70984 15.7252 1.98725 17.6522C1.7968 18.1283 1.65116 18.6212 1.48312 19.1085C1.34308 19.6015 1.18624 20.0888 1.07421 20.5817C0.816542 21.5676 0.648498 22.5703 0.486055 23.5337C-0.135709 27.4267 -0.236536 31.5046 0.631693 35.4873C1.05741 37.4702 1.72958 39.4195 2.65383 41.24C3.57247 43.0661 4.75998 44.7409 6.10994 46.2477C8.83786 49.2445 12.2268 51.4795 15.8117 53.0311C17.6098 53.8041 19.4527 54.4315 21.3292 54.9188C22.1862 55.1429 23.0488 55.3333 23.917 55.5014V53.1039C23.2841 52.9303 22.6567 52.7454 22.0293 52.5382C20.3041 51.9668 18.6236 51.2722 17.0272 50.4544C15.4308 49.631 13.896 48.7068 12.4956 47.6313C11.0953 46.5558 9.82372 45.3403 8.72583 44.0015C6.53565 41.3128 5.10727 38.12 4.52472 34.7255C3.93657 31.331 4.11581 27.7796 4.79359 24.2955C4.96724 23.4161 5.14649 22.5759 5.39855 21.7524C5.51058 21.3379 5.65622 20.9346 5.78505 20.5313C5.93629 20.1336 6.07073 19.7303 6.24437 19.3438C6.89415 17.7754 7.72317 16.3078 8.73143 14.9802C10.7368 12.3139 13.4367 10.2134 16.5175 8.71779C19.5871 7.19979 23.004 6.25874 26.4993 5.73781C28.247 5.46894 30.0227 5.28969 31.8039 5.21687C32.3977 5.18886 32.9914 5.18326 33.5852 5.17766L36.4475 5.16646C36.1171 4.5727 35.9042 3.64285 35.9042 2.59538Z" fill="#175884"></path></svg> 