<svg width="30" height="30" viewBox="0 0 30 30" fill="none" xmlns="http://www.w3.org/2000/svg">
<g clip-path="url(#clip0_2165_76)">
<path d="M15.0001 29.4024C22.9543 29.4024 29.4025 22.9542 29.4025 15C29.4025 7.04577 22.9543 0.597595 15.0001 0.597595C7.04583 0.597595 0.597656 7.04577 0.597656 15C0.597656 22.9542 7.04583 29.4024 15.0001 29.4024Z" fill="#FF757C"/>
<path d="M23.1773 9.61161L20.3883 6.82266L14.9999 12.211L9.61157 6.82266L6.82251 9.61161L12.2109 15L6.82251 20.3884L9.61157 23.1774L14.9999 17.789L20.3883 23.1774L23.1773 20.3884L17.7889 15L23.1773 9.61161Z" fill="#F2F2F2"/>
<path d="M15 30C10.9934 30 7.22654 28.4398 4.39336 25.6066C1.56018 22.7735 0 19.0066 0 15C0 10.9934 1.56023 7.22654 4.39336 4.39336C7.22648 1.56018 10.9934 0 15 0C19.0066 0 22.7735 1.56023 25.6066 4.39336C28.4398 7.22648 30 10.9934 30 15C30 19.0066 28.4398 22.7735 25.6066 25.6066C22.7735 28.4398 19.0066 30 15 30ZM15 1.1952C7.38803 1.1952 1.1952 7.38803 1.1952 15C1.1952 22.612 7.38803 28.8048 15 28.8048C22.612 28.8048 28.8048 22.612 28.8048 15C28.8048 7.38803 22.612 1.1952 15 1.1952Z" fill="#4D4D4D"/>
<path d="M20.3885 23.7749C20.2356 23.7749 20.0826 23.7166 19.9659 23.5999L15.0001 18.6341L10.0344 23.5999C9.80097 23.8333 9.42257 23.8333 9.18914 23.5999L6.40013 20.8109C6.16675 20.5775 6.16675 20.1991 6.40013 19.9657L11.366 15L6.40019 10.0342C6.16681 9.80087 6.16681 9.42247 6.40019 9.18903L9.18919 6.40003C9.42257 6.16671 9.80097 6.16671 10.0344 6.40003L15.0001 11.3659L19.9659 6.40009C20.1993 6.16677 20.5777 6.16677 20.8111 6.40009L23.6001 9.18909C23.8335 9.42247 23.8335 9.80087 23.6001 10.0343L18.6342 15L23.6 19.9658C23.8334 20.1991 23.8334 20.5775 23.6 20.811L20.811 23.6C20.6944 23.7166 20.5414 23.7749 20.3885 23.7749ZM15.0001 17.1914C15.153 17.1914 15.306 17.2497 15.4227 17.3664L20.3885 22.3322L22.3323 20.3883L17.3665 15.4226C17.1331 15.1892 17.1331 14.8108 17.3665 14.5774L22.3323 9.61161L20.3885 7.66776L15.4227 12.6336C15.1893 12.8669 14.8109 12.8669 14.5775 12.6336L9.61171 7.66776L7.66787 9.61161L12.6337 14.5774C12.8671 14.8108 12.8671 15.1891 12.6337 15.4226L7.66787 20.3883L9.61171 22.3322L14.5775 17.3664C14.6942 17.2498 14.8472 17.1914 15.0001 17.1914Z" fill="#4D4D4D"/>
<path d="M26.6231 19.8408C26.5551 19.8408 26.4861 19.8291 26.4186 19.8045C26.1085 19.6915 25.9487 19.3485 26.0616 19.0385C26.6327 17.4709 26.8665 15.7597 26.7378 14.0897C26.7124 13.7607 26.9586 13.4734 27.2877 13.448C27.6171 13.4217 27.904 13.6688 27.9294 13.9979C28.0712 15.8366 27.8136 17.721 27.1847 19.4476C27.0963 19.6901 26.8671 19.8408 26.6231 19.8408Z" fill="#4D4D4D"/>
<path d="M26.9277 12.3109C26.6653 12.3109 26.4247 12.1367 26.3518 11.8713C26.3048 11.7004 26.2534 11.5282 26.1987 11.3595C26.0969 11.0456 26.269 10.7085 26.583 10.6068C26.8968 10.5049 27.234 10.677 27.3357 10.991C27.396 11.1768 27.4527 11.3665 27.5044 11.5549C27.5918 11.8732 27.4047 12.202 27.0864 12.2894C27.0333 12.3039 26.9801 12.3109 26.9277 12.3109Z" fill="#4D4D4D"/>
</g>
<defs>
<clipPath id="clip0_2165_76">
<rect width="30" height="30" fill="white"/>
</clipPath>
</defs>
</svg>
