<svg width="30" height="30" viewBox="0 0 30 30" fill="none" xmlns="http://www.w3.org/2000/svg">
<g clip-path="url(#clip0_2165_190)">
<path d="M0.597656 27.4604L15.0001 2.5397L29.4025 27.4604H0.597656Z" fill="#FBB429"/>
<path d="M15 24.9204C15.8984 24.9204 16.6267 24.1921 16.6267 23.2937C16.6267 22.3953 15.8984 21.667 15 21.667C14.1016 21.667 13.3733 22.3953 13.3733 23.2937C13.3733 24.1921 14.1016 24.9204 15 24.9204Z" fill="#1FCFC1"/>
<path d="M14.0817 19.8515H15.9185C16.3097 19.8515 16.627 19.5343 16.627 19.1431V10.9874C16.627 10.5962 16.3097 10.2789 15.9185 10.2789H14.0817C13.6905 10.2789 13.3733 10.5962 13.3733 10.9874V19.1432C13.3732 19.5344 13.6904 19.8515 14.0817 19.8515Z" fill="#1FCFC1"/>
<path d="M29.4025 28.058H0.597643C0.384127 28.058 0.186783 27.9441 0.0800246 27.7591C-0.0267334 27.5741 -0.0266748 27.3462 0.0802004 27.1614L14.4826 2.24057C14.5894 2.05577 14.7866 1.94198 15 1.94198C15.2134 1.94198 15.4106 2.05577 15.5174 2.24057L29.9198 27.1614C30.0267 27.3463 30.0268 27.5742 29.92 27.7591C29.8134 27.9441 29.616 28.058 29.4025 28.058ZM1.63323 26.8628H28.3669L15.0001 3.73395L1.63323 26.8628Z" fill="#4D4D4D"/>
<path d="M8.40573 18.7053C8.30425 18.7053 8.20142 18.6794 8.10725 18.6249C7.82149 18.4598 7.72376 18.0943 7.88888 17.8085L8.13069 17.3902C8.29581 17.1044 8.66144 17.0066 8.94714 17.1718C9.2329 17.337 9.33064 17.7025 9.16552 17.9883L8.9237 18.4066C8.8129 18.5983 8.6121 18.7053 8.40573 18.7053Z" fill="#4D4D4D"/>
<path d="M4.12302 26.1156C4.02153 26.1156 3.91876 26.0897 3.82454 26.0354C3.53878 25.8702 3.44104 25.5047 3.60616 25.2189L6.54189 20.1392C6.70707 19.8535 7.07257 19.7557 7.35834 19.9209C7.6441 20.086 7.74183 20.4515 7.57672 20.7373L4.64099 25.817C4.53024 26.0086 4.32944 26.1156 4.12302 26.1156Z" fill="#4D4D4D"/>
<path d="M15 25.518C13.7735 25.518 12.7756 24.5201 12.7756 23.2936C12.7756 22.0671 13.7735 21.0692 15 21.0692C16.2265 21.0692 17.2245 22.0671 17.2245 23.2936C17.2245 24.5201 16.2266 25.518 15 25.518ZM15 22.2644C14.4325 22.2644 13.9708 22.7261 13.9708 23.2936C13.9708 23.8611 14.4325 24.3228 15 24.3228C15.5676 24.3228 16.0293 23.8611 16.0293 23.2936C16.0293 22.7261 15.5676 22.2644 15 22.2644Z" fill="#4D4D4D"/>
<path d="M15.9184 20.4493H14.0817C13.3615 20.4493 12.7756 19.8634 12.7756 19.1432V10.9874C12.7756 10.2672 13.3615 9.68135 14.0817 9.68135H15.9184C16.6386 9.68135 17.2244 10.2672 17.2244 10.9874V19.1432C17.2245 19.8633 16.6386 20.4493 15.9184 20.4493ZM14.0817 10.8765C14.0206 10.8765 13.9708 10.9263 13.9708 10.9874V19.1432C13.9708 19.2043 14.0206 19.2541 14.0817 19.2541H15.9184C15.9795 19.2541 16.0292 19.2043 16.0292 19.1432V10.9874C16.0292 10.9263 15.9795 10.8765 15.9184 10.8765H14.0817Z" fill="#4D4D4D"/>
</g>
<defs>
<clipPath id="clip0_2165_190">
<rect width="30" height="30" fill="white"/>
</clipPath>
</defs>
</svg>
