<svg width="30" height="30" viewBox="0 0 30 30" fill="none" xmlns="http://www.w3.org/2000/svg">
<g clip-path="url(#clip0_2165_221)">
<path d="M25.9727 0.803969L25.9733 6.55961L22.7518 8.78835L19.5314 6.55844L19.5287 0.802797C17.5322 1.93056 16.181 4.06948 16.181 6.52885C16.181 7.51657 16.4172 8.44663 16.808 9.28634L1.4271 24.6684C0.428829 25.6633 0.430411 27.2807 1.42487 28.2762C2.42308 29.2744 4.03881 29.2722 5.03485 28.2756L20.6018 12.7082C20.6018 12.7082 21.9958 13.0957 22.7495 13.0962C26.3803 13.099 29.3214 10.1545 29.3214 6.52603C29.3209 4.07 27.9703 1.9312 25.9727 0.803969Z" fill="#A2A9AF"/>
<path d="M22.8425 21.928L14.265 13.3505L13.0291 14.5864L21.6065 23.1638L22.3638 25.2522L26.3089 29.1972L28.8758 26.6303L24.9307 22.6852L22.8425 21.928Z" fill="#4C5870"/>
<path d="M12.672 16.8631L1.59252 5.78412C0.523529 4.71571 0.521127 2.98267 1.59188 1.91193C2.65969 0.845337 4.39455 0.84352 5.46172 1.91427L16.5419 12.9932L12.672 16.8631Z" fill="#EE3840"/>
<path d="M13.3667 13.6878C13.1016 13.9528 12.6719 13.9528 12.4068 13.6878L3.04349 4.32448C2.77847 4.05946 2.77847 3.62967 3.04349 3.36459C3.30851 3.09951 3.7383 3.09957 4.00338 3.36459L13.3666 12.7278C13.6316 12.9929 13.6317 13.4227 13.3667 13.6878Z" fill="#C21B23"/>
<path d="M17.3212 13.1739L12.8528 17.6423C12.5877 17.9074 12.158 17.9074 11.8929 17.6423C11.6278 17.3773 11.6279 16.9475 11.8929 16.6824L16.3613 12.2141C16.6263 11.949 17.0561 11.949 17.3212 12.2141C17.5862 12.4791 17.5862 12.9089 17.3212 13.1739Z" fill="#C21B23"/>
<path d="M3.22001 27.1603C3.59488 27.1603 3.89877 26.8564 3.89877 26.4815C3.89877 26.1067 3.59488 25.8028 3.22001 25.8028C2.84515 25.8028 2.54126 26.1067 2.54126 26.4815C2.54126 26.8564 2.84515 27.1603 3.22001 27.1603Z" fill="white"/>
<path d="M15.7676 9.36709C15.5027 9.63222 15.5027 10.0619 15.7678 10.327C16.0329 10.5922 16.4626 10.5921 16.7276 10.3269L17.2881 9.76629C17.4897 9.56461 17.5438 9.25851 17.4234 8.99999C17.0494 8.19638 16.8598 7.36498 16.8598 6.52885C16.8598 4.82663 17.6008 3.22338 18.8506 2.11572L18.8528 6.55879C18.8529 6.78133 18.9621 6.98981 19.1451 7.11649L22.3655 9.3464C22.5978 9.50724 22.9056 9.50742 23.138 9.34652L26.3595 7.11778C26.5428 6.99098 26.6521 6.78238 26.6521 6.55949L26.6517 2.11665C27.9014 3.22332 28.6424 4.82528 28.6428 6.52609C28.6428 8.10011 28.03 9.57996 26.9171 10.693C25.8051 11.8052 24.3271 12.4176 22.7547 12.4176C22.7532 12.4176 22.7517 12.4176 22.7501 12.4176C22.2091 12.4171 21.1471 12.1552 20.7835 12.0543C20.5477 11.9887 20.2949 12.0553 20.1218 12.2282L18.0583 14.2918C17.7933 14.5568 17.7933 14.9866 18.0583 15.2517C18.1909 15.3842 18.3646 15.4506 18.5383 15.4506C18.7119 15.4506 18.8857 15.3842 19.0182 15.2517L20.8069 13.463C21.3056 13.5863 22.1628 13.7746 22.7491 13.775C22.7511 13.775 22.7528 13.775 22.7547 13.775C24.6895 13.7749 26.5086 13.0213 27.877 11.6527C29.2462 10.2833 30.0001 8.46269 30.0001 6.52598C29.9996 3.91731 28.5841 1.49831 26.3063 0.212814C26.0961 0.0942191 25.8388 0.0960942 25.6304 0.217794C25.422 0.339494 25.2939 0.562679 25.2939 0.804028L25.2945 6.20388L22.7519 7.96288L20.2102 6.20271L20.2075 0.802505C20.2074 0.561214 20.0792 0.338088 19.8708 0.216564C19.6624 0.0949223 19.4051 0.093223 19.195 0.211876C16.9174 1.49849 15.5024 3.91901 15.5024 6.52879C15.5024 7.41034 15.6708 8.28362 16.0035 9.13124L15.7676 9.36709Z" fill="#11113F"/>
<path d="M13.9703 18.3799L4.55476 27.7958C4.20091 28.1498 3.73057 28.3449 3.23035 28.3452C3.23 28.3452 3.22977 28.3452 3.22936 28.3452C2.72926 28.3452 2.2588 28.1502 1.90507 27.7965C1.5514 27.4424 1.35687 26.9714 1.35745 26.4702C1.35798 25.9704 1.55286 25.5013 1.90701 25.1483L10.0056 17.0489C10.2707 16.7839 10.2707 16.3542 10.0056 16.0891C9.74062 15.8241 9.31084 15.824 9.04576 16.0891L0.947996 24.1876C0.33768 24.7958 0.000998312 25.606 2.21202e-06 26.4686C-0.000993888 27.3327 0.334457 28.145 0.944949 28.7562C1.55538 29.3666 2.36662 29.7028 3.2293 29.7028C3.22988 29.7028 3.23053 29.7028 3.23106 29.7028C4.0938 29.7023 4.90491 29.3658 5.51482 28.7556L14.9302 19.3399C15.1952 19.0748 15.1952 18.6451 14.9302 18.3799C14.665 18.1149 14.2354 18.1149 13.9703 18.3799Z" fill="#11113F"/>
<path d="M25.4106 22.2053C25.3403 22.135 25.2555 22.0811 25.1621 22.0471L23.2156 21.3414L16.1847 14.3103L17.3212 13.174C17.5862 12.909 17.5863 12.4792 17.3212 12.2141C17.12 12.013 16.824 11.9644 16.5771 12.0685L5.94249 1.43514C5.2993 0.789907 4.44271 0.433947 3.53058 0.432893C3.52923 0.432893 3.528 0.432893 3.52665 0.432893C2.61452 0.432893 1.75711 0.787621 1.11199 1.43198C0.465989 2.07792 0.110557 2.93638 0.111085 3.84928C0.111553 4.76141 0.467278 5.61911 1.11257 6.264L11.7473 16.8982C11.6432 17.1451 11.6916 17.4411 11.8928 17.6423C12.158 17.9072 12.5877 17.9074 12.8527 17.6423L13.9889 16.5061L21.0199 23.537L21.7257 25.4835C21.7596 25.5769 21.8135 25.6618 21.8838 25.7321L25.8289 29.6771C25.9615 29.8096 26.1352 29.8759 26.3089 29.8759C26.4825 29.8759 26.6563 29.8096 26.7888 29.6771L29.3556 27.1103C29.4829 26.9829 29.5544 26.8103 29.5544 26.6303C29.5544 26.4503 29.4829 26.2777 29.3556 26.1504L25.4106 22.2053ZM14.7448 13.8304C14.7434 13.8318 14.7419 13.8334 14.7404 13.8348L12.672 15.9032L2.07229 5.30405C1.68322 4.91522 1.46883 4.39837 1.46853 3.84864C1.46824 3.29861 1.68246 2.78123 2.07153 2.39222C2.46012 2.00403 2.97675 1.79046 3.52659 1.79046C3.52741 1.79046 3.52823 1.79046 3.529 1.79046C4.07832 1.79105 4.59388 2.00527 4.98172 2.39433L15.5819 12.9934L14.7492 13.8261C14.7478 13.8275 14.7463 13.8289 14.7448 13.8304ZM26.3088 28.2373L22.9504 24.8789L22.2446 22.9324C22.2107 22.839 22.1568 22.7541 22.0864 22.6839L14.9487 15.5463L15.2248 15.2703L22.3624 22.4079C22.4327 22.4782 22.5176 22.5321 22.611 22.566L24.5574 23.2718L27.9158 26.6302L26.3088 28.2373Z" fill="#11113F"/>
<path d="M4.00338 3.36459C3.73836 3.09963 3.30857 3.09963 3.04349 3.36459C2.77847 3.62961 2.77847 4.0594 3.04349 4.32454L12.4067 13.6877C12.5392 13.8202 12.713 13.8865 12.8867 13.8865C13.0603 13.8865 13.2341 13.8202 13.3666 13.6877C13.6316 13.4227 13.6316 12.9929 13.3666 12.7277L4.00338 3.36459Z" fill="#11113F"/>
</g>
<defs>
<clipPath id="clip0_2165_221">
<rect width="30" height="30" fill="white"/>
</clipPath>
</defs>
</svg>
