<svg width="28" height="30" viewBox="0 0 28 30" fill="none" xmlns="http://www.w3.org/2000/svg">
<path d="M26.1911 23.9191C26.0931 22.3921 25.388 20.9756 24.2163 19.9649L22.6972 9.50824C22.2163 5.88117 19.5574 2.91674 16.0309 2.02857C15.9445 0.895547 14.9949 0 13.8401 0C12.6853 0 11.7357 0.895547 11.6492 2.02857C8.1228 2.91674 5.46388 5.881 4.9837 9.50285L3.46384 19.9649C2.2922 20.9757 1.58708 22.3921 1.48905 23.9191C0.971201 24.097 0.5979 24.5886 0.5979 25.166C0.5979 25.8929 1.18929 26.4844 1.91626 26.4844H9.18927C9.77163 28.5411 11.673 30 13.8401 30C16.0082 30 17.9087 28.5415 18.491 26.4844H25.7639C26.4908 26.4844 27.0823 25.8929 27.0823 25.166C27.0823 24.5886 26.7089 24.097 26.1911 23.9191ZM4.16146 20.5273C4.27396 20.4364 4.33249 20.298 4.32388 20.1584L5.85423 9.62373C6.30171 6.24891 8.84093 3.51047 12.1727 2.80945C12.3761 2.76674 12.5217 2.58727 12.5217 2.37943V2.19727C12.5217 1.47035 13.1131 0.878906 13.8401 0.878906C14.567 0.878906 15.1584 1.47035 15.1584 2.19727V2.37943C15.1584 2.58727 15.304 2.76668 15.5074 2.80945C18.8392 3.51047 21.3785 6.24885 21.8267 9.62918L23.3563 20.1586C23.3477 20.2981 23.4063 20.4364 23.5187 20.5273C24.5504 21.3612 25.1862 22.5531 25.3041 23.8477H2.37599C2.49388 22.5531 3.12968 21.3612 4.16146 20.5273ZM13.8401 29.1211C12.1521 29.1211 10.6608 28.0397 10.1104 26.4844H17.5697C17.0194 28.0399 15.529 29.1211 13.8401 29.1211ZM25.7639 25.6055H18.1467C18.146 25.6055 18.1453 25.6055 18.1446 25.6055H1.91626C1.67392 25.6055 1.47681 25.4084 1.47681 25.166C1.47681 24.9237 1.67392 24.7266 1.91626 24.7266H25.7639C26.0063 24.7266 26.2034 24.9237 26.2034 25.166C26.2034 25.4084 26.0063 25.6055 25.7639 25.6055Z" fill="#A6A6A6"/>
</svg>
