<svg width="30" height="30" viewBox="0 0 30 30" fill="none" xmlns="http://www.w3.org/2000/svg">
<g clip-path="url(#clip0_2166_234)">
<path d="M4.8948 20.5263H8.6843C9.29373 20.5263 9.78955 20.0305 9.78955 19.4211V15.6316C9.78955 15.0222 9.29367 14.5263 8.6843 14.5263H4.8948C4.28537 14.5263 3.78955 15.0222 3.78955 15.6316V16.2632C3.78955 16.5249 4.00166 16.7368 4.26322 16.7368C4.52484 16.7368 4.73689 16.5249 4.73689 16.2632V15.6316C4.73689 15.5445 4.80773 15.4737 4.8948 15.4737H8.6843C8.77131 15.4737 8.84221 15.5445 8.84221 15.6316V19.4211C8.84221 19.5082 8.77137 19.579 8.6843 19.579H4.8948C4.80779 19.579 4.73689 19.5082 4.73689 19.4211V18.1579C4.73689 17.8962 4.52479 17.6842 4.26322 17.6842C4.0016 17.6842 3.78955 17.8962 3.78955 18.1579V19.4211C3.78955 20.0305 4.28537 20.5263 4.8948 20.5263Z" fill="#A6A6A6"/>
<path d="M26.0527 22.1053H8.05266C7.79104 22.1053 7.57898 22.3172 7.57898 22.5789C7.57898 22.8406 7.79109 23.0526 8.05266 23.0526H26.0527C27.7068 23.0526 29.0527 24.3984 29.0527 26.0526C29.0527 27.7068 27.7068 29.0526 26.0527 29.0526H3.94734C2.29318 29.0526 0.947344 27.7068 0.947344 26.0526C0.947344 24.3984 2.29318 23.0526 3.94734 23.0526H6.15785C6.41947 23.0526 6.63152 22.8406 6.63152 22.5789C6.63152 22.3172 6.41941 22.1053 6.15785 22.1053H3.94734C1.77082 22.1053 0 23.876 0 26.0527C0 28.2292 1.77082 30 3.94734 30H26.0526C28.2292 30 30 28.2292 30 26.0527C30 23.876 28.2292 22.1053 26.0527 22.1053Z" fill="#A6A6A6"/>
<path d="M3.47363 25.9895V26.1158C3.47363 26.3775 3.68574 26.5895 3.9473 26.5895C4.20893 26.5895 4.42098 26.3774 4.42098 26.1158V25.9895C4.42098 25.7278 4.20887 25.5158 3.9473 25.5158C3.68574 25.5157 3.47363 25.7278 3.47363 25.9895Z" fill="#A6A6A6"/>
<path d="M21.3157 20.5263H25.1052C25.7146 20.5263 26.2104 20.0304 26.2104 19.4211V1.10525C26.2104 0.495879 25.7146 0 25.1052 0H21.3157C20.7063 0 20.2104 0.495879 20.2104 1.10525V2.36842C20.2104 2.6301 20.4226 2.84209 20.6841 2.84209C20.9457 2.84209 21.1578 2.6301 21.1578 2.36842V1.10525C21.1578 1.01818 21.2286 0.947344 21.3157 0.947344H25.1052C25.1922 0.947344 25.2631 1.01813 25.2631 1.10525V19.421C25.2631 19.5081 25.1923 19.5789 25.1052 19.5789H21.3157C21.2287 19.5789 21.1578 19.5081 21.1578 19.421V4.26316C21.1578 4.00148 20.9457 3.78949 20.6841 3.78949C20.4225 3.78949 20.2104 4.00148 20.2104 4.26316V19.4211C20.2104 20.0304 20.7063 20.5263 21.3157 20.5263Z" fill="#A6A6A6"/>
<path d="M13.1053 20.5263H16.8947C17.5042 20.5263 18 20.0304 18 19.4211V10.5789C18 9.96948 17.5041 9.47366 16.8947 9.47366H13.1053C12.4958 9.47366 12 9.96954 12 10.5789V11.8421C12 12.1038 12.2121 12.3158 12.4737 12.3158C12.7352 12.3158 12.9473 12.1038 12.9473 11.8421V10.5789C12.9473 10.4918 13.0182 10.421 13.1053 10.421H16.8947C16.9818 10.421 17.0527 10.4918 17.0527 10.5789V19.421C17.0527 19.5081 16.9818 19.5789 16.8947 19.5789H13.1053C13.0182 19.5789 12.9473 19.5081 12.9473 19.421V13.7368C12.9473 13.4751 12.7352 13.2631 12.4737 13.2631C12.2121 13.2631 12 13.4751 12 13.7368V19.421C12 20.0304 12.4959 20.5263 13.1053 20.5263Z" fill="#A6A6A6"/>
<path d="M17.0526 26.0527C17.0526 24.9208 16.1317 24 14.9999 24C13.8681 24 12.9473 24.9208 12.9473 26.0527C12.9473 27.1845 13.8681 28.1053 14.9999 28.1053C16.1317 28.1053 17.0526 27.1845 17.0526 26.0527ZM13.8947 26.0527C13.8947 25.4432 14.3905 24.9474 14.9999 24.9474C15.6094 24.9474 16.1052 25.4433 16.1052 26.0527C16.1052 26.6621 15.6093 27.1579 14.9999 27.1579C14.3905 27.1579 13.8947 26.662 13.8947 26.0527Z" fill="#A6A6A6"/>
<path d="M26.5264 26.1157V25.9894C26.5264 25.7277 26.3143 25.5157 26.0528 25.5157C25.7912 25.5157 25.5791 25.7277 25.5791 25.9894V26.1157C25.5791 26.3774 25.7912 26.5894 26.0528 26.5894C26.3143 26.5895 26.5264 26.3774 26.5264 26.1157Z" fill="#A6A6A6"/>
<path d="M28.1053 26.0527C28.1053 24.9208 27.1845 24 26.0527 24C24.9209 24 24 24.9208 24 26.0527C24 27.1845 24.9209 28.1053 26.0527 28.1053C27.1845 28.1053 28.1053 27.1845 28.1053 26.0527ZM24.9474 26.0527C24.9474 25.4432 25.4433 24.9474 26.0527 24.9474C26.6621 24.9474 27.1579 25.4433 27.1579 26.0527C27.1579 26.6621 26.662 27.1579 26.0527 27.1579C25.4433 27.1579 24.9474 26.662 24.9474 26.0527Z" fill="#A6A6A6"/>
<path d="M1.89478 26.0527C1.89478 27.1845 2.81563 28.1053 3.94743 28.1053C5.07923 28.1053 6.00009 27.1845 6.00009 26.0527C6.00009 24.9208 5.07923 24 3.94743 24C2.81563 24 1.89478 24.9208 1.89478 26.0527ZM5.05269 26.0527C5.05269 26.6621 4.55681 27.1579 3.94743 27.1579C3.338 27.1579 2.84218 26.662 2.84218 26.0527C2.84218 25.4432 3.33806 24.9474 3.94743 24.9474C4.55681 24.9473 5.05269 25.4432 5.05269 26.0527Z" fill="#A6A6A6"/>
<path d="M15.4737 26.1157V25.9894C15.4737 25.7277 15.2616 25.5157 15 25.5157C14.7384 25.5157 14.5264 25.7277 14.5264 25.9894V26.1157C14.5264 26.3774 14.7385 26.5894 15 26.5894C15.2617 26.5895 15.4737 26.3774 15.4737 26.1157Z" fill="#A6A6A6"/>
</g>
<defs>
<clipPath id="clip0_2166_234">
<rect width="30" height="30" fill="white"/>
</clipPath>
</defs>
</svg>
