<svg width="30" height="30" viewBox="0 0 30 30" fill="none" xmlns="http://www.w3.org/2000/svg">
<g clip-path="url(#clip0_2166_267)">
<g clip-path="url(#clip1_2166_267)">
<path d="M7.25451 25.1191C7.62525 25.2471 8.02253 25.3176 8.43625 25.3176C10.4376 25.3176 12.0659 23.6894 12.0659 21.688C12.0659 21.2328 11.9809 20.7974 11.8273 20.3956L17.3814 18.8368C17.9523 19.2115 18.6344 19.4303 19.3669 19.4303C21.3683 19.4303 22.9966 17.8021 22.9966 15.8006C22.9966 15.0665 22.7769 14.383 22.4007 13.8113L24.4372 10.299C24.9974 10.6531 25.6601 10.859 26.3704 10.859C28.3719 10.859 30.0001 9.2308 30.0001 7.22937C30.0001 5.22795 28.3719 3.59967 26.3704 3.59967C24.3691 3.59967 22.7408 5.22788 22.7408 7.22937C22.7408 8.0384 23.007 8.78623 23.4562 9.39039L21.4579 12.8366C20.8663 12.418 20.1451 12.1709 19.3669 12.1709C17.3655 12.1709 15.7372 13.7992 15.7372 15.8006C15.7372 16.5297 15.9541 17.2088 16.3257 17.7783L11.1143 19.2409C10.4501 18.5147 9.49552 18.0585 8.43625 18.0585C6.43482 18.0585 4.80661 19.6866 4.80661 21.6881C4.80661 22.7834 5.29492 23.7662 6.06452 24.4322L1.30432 28.6675V0H0V29.3478C0 29.708 0.292021 30 0.65216 30H30V28.6957H3.23465L7.25451 25.1191ZM26.3704 4.90406C27.6525 4.90406 28.6957 5.94733 28.6957 7.22937C28.6957 8.51141 27.6525 9.55462 26.3704 9.55462C25.0884 9.55462 24.0452 8.51141 24.0452 7.22937C24.0452 5.94733 25.0884 4.90406 26.3704 4.90406ZM19.3669 13.4753C20.649 13.4753 21.6922 14.5185 21.6922 15.8005C21.6922 17.0826 20.649 18.1258 19.3669 18.1258C18.0848 18.1258 17.0416 17.0826 17.0416 15.8005C17.0415 14.5185 18.0848 13.4753 19.3669 13.4753ZM8.43625 19.3627C9.71828 19.3627 10.7615 20.406 10.7615 21.688C10.7615 22.97 9.71828 24.0132 8.43625 24.0132C7.15421 24.0132 6.11099 22.97 6.11099 21.688C6.11099 20.406 7.15421 19.3627 8.43625 19.3627Z" fill="#A6A6A6"/>
</g>
</g>
<defs>
<clipPath id="clip0_2166_267">
<rect width="30" height="30" fill="white"/>
</clipPath>
<clipPath id="clip1_2166_267">
<rect width="30" height="30" fill="white"/>
</clipPath>
</defs>
</svg>
