<svg width="30" height="30" viewBox="0 0 30 30" fill="none" xmlns="http://www.w3.org/2000/svg">
<g clip-path="url(#clip0_2166_313)">
<path d="M21.875 30C17.395 30 13.75 26.355 13.75 21.875C13.75 17.395 17.395 13.75 21.875 13.75C26.355 13.75 30 17.395 30 21.875C30 26.355 26.355 30 21.875 30ZM21.875 15C18.0838 15 15 18.085 15 21.875C15 25.665 18.0838 28.75 21.875 28.75C25.6662 28.75 28.75 25.665 28.75 21.875C28.75 18.085 25.6662 15 21.875 15Z" fill="#A6A6A6"/>
<path d="M19.2237 25.1513C19.0637 25.1513 18.9037 25.09 18.7812 24.9688C18.5375 24.725 18.5375 24.3288 18.7812 24.085L24.0837 18.7825C24.3275 18.5388 24.7237 18.5388 24.9675 18.7825C25.2112 19.0263 25.2112 19.4225 24.9675 19.6663L19.665 24.9688C19.5437 25.09 19.3837 25.1513 19.2237 25.1513Z" fill="#A6A6A6"/>
<path d="M24.5262 25.1513C24.3662 25.1513 24.2062 25.09 24.0837 24.9688L18.7812 19.6663C18.5375 19.4225 18.5375 19.0263 18.7812 18.7825C19.025 18.5388 19.4212 18.5388 19.665 18.7825L24.9675 24.085C25.2112 24.3288 25.2112 24.725 24.9675 24.9688C24.8462 25.09 24.6862 25.1513 24.5262 25.1513Z" fill="#A6A6A6"/>
<path d="M13.125 16.25H3.125C1.4025 16.25 0 14.8475 0 13.125V3.125C0 1.4025 1.4025 0 3.125 0H13.125C16.2262 0 18.75 2.52375 18.75 5.625V10.625C18.75 13.7262 16.2262 16.25 13.125 16.25ZM3.125 1.25C2.09125 1.25 1.25 2.09125 1.25 3.125V13.125C1.25 14.1588 2.09125 15 3.125 15H13.125C15.5375 15 17.5 13.0375 17.5 10.625V5.625C17.5 3.2125 15.5375 1.25 13.125 1.25H3.125Z" fill="#A6A6A6"/>
<path d="M19.375 11.25H18.125C17.78 11.25 17.5 10.97 17.5 10.625V5.625C17.5 5.28 17.78 5 18.125 5H19.375C20.4088 5 21.25 5.84125 21.25 6.875V9.375C21.25 10.4088 20.4088 11.25 19.375 11.25ZM18.75 10H19.375C19.72 10 20 9.72 20 9.375V6.875C20 6.53 19.72 6.25 19.375 6.25H18.75V10Z" fill="#A6A6A6"/>
<path d="M23.125 8.75H20.625C20.28 8.75 20 8.47 20 8.125C20 7.78 20.28 7.5 20.625 7.5H23.125C23.47 7.5 23.75 7.78 23.75 8.125C23.75 8.47 23.47 8.75 23.125 8.75Z" fill="#A6A6A6"/>
<path d="M23.125 12.5C22.78 12.5 22.5 12.22 22.5 11.875C22.5 9.89875 22.8337 8.89625 23.1575 7.9275C23.4625 7.0125 23.75 6.14875 23.75 4.375C23.75 4.03 24.03 3.75 24.375 3.75C24.72 3.75 25 4.03 25 4.375C25 6.35125 24.6663 7.35375 24.3425 8.3225C24.0375 9.2375 23.75 10.1012 23.75 11.875C23.75 12.22 23.47 12.5 23.125 12.5Z" fill="#A6A6A6"/>
<path d="M4.375 16.25C4.03 16.25 3.75 15.97 3.75 15.625V0.625C3.75 0.28 4.03 0 4.375 0C4.72 0 5 0.28 5 0.625V15.625C5 15.97 4.72 16.25 4.375 16.25Z" fill="#A6A6A6"/>
<path d="M14.375 5H8.125C7.78 5 7.5 4.72 7.5 4.375C7.5 4.03 7.78 3.75 8.125 3.75H14.375C14.72 3.75 15 4.03 15 4.375C15 4.72 14.72 5 14.375 5Z" fill="#A6A6A6"/>
<path d="M14.375 8.75H8.125C7.78 8.75 7.5 8.47 7.5 8.125C7.5 7.78 7.78 7.5 8.125 7.5H14.375C14.72 7.5 15 7.78 15 8.125C15 8.47 14.72 8.75 14.375 8.75Z" fill="#A6A6A6"/>
<path d="M14.375 12.5H8.125C7.78 12.5 7.5 12.22 7.5 11.875C7.5 11.53 7.78 11.25 8.125 11.25H14.375C14.72 11.25 15 11.53 15 11.875C15 12.22 14.72 12.5 14.375 12.5Z" fill="#A6A6A6"/>
<path d="M5.625 18.75H3.125C2.78 18.75 2.5 18.47 2.5 18.125V15.625C2.5 15.28 2.78 15 3.125 15H6.875C7.09125 15 7.2925 15.1125 7.40625 15.2963C7.52 15.48 7.53125 15.7112 7.43375 15.9037L6.18375 18.4037C6.0775 18.6162 5.86125 18.75 5.625 18.75ZM3.75 17.5H5.23875L5.86375 16.25H3.75V17.5Z" fill="#A6A6A6"/>
<path d="M13.1249 18.75H10.6249C10.3886 18.75 10.1724 18.6162 10.0661 18.405L8.81613 15.905C8.71863 15.7112 8.72988 15.4812 8.84363 15.2975C8.95738 15.1137 9.15863 15 9.37488 15H13.1249C13.4699 15 13.7499 15.28 13.7499 15.625V18.125C13.7499 18.47 13.4699 18.75 13.1249 18.75ZM11.0111 17.5H12.4999V16.25H10.3861L11.0111 17.5Z" fill="#A6A6A6"/>
</g>
<defs>
<clipPath id="clip0_2166_313">
<rect width="30" height="30" fill="white"/>
</clipPath>
</defs>
</svg>
