<svg width="19" height="30" viewBox="0 0 19 30" fill="none" xmlns="http://www.w3.org/2000/svg">
<path d="M8.60942 17.3438C8.75942 17.3438 8.9093 17.2865 9.02374 17.1722L14.2972 11.8987C14.526 11.6699 14.526 11.2989 14.2972 11.07C14.0683 10.8413 13.6974 10.8413 13.4685 11.07L8.60942 15.9292L5.50811 12.8278C5.27924 12.5991 4.90834 12.5991 4.67942 12.8278C4.45061 13.0567 4.45061 13.4277 4.67942 13.6565L8.19504 17.1722C8.30954 17.2865 8.45942 17.3438 8.60942 17.3438Z" fill="#A6A6A6"/>
<path d="M3.62915 22.3828C3.62915 22.7064 3.89153 22.9688 4.21509 22.9688H14.762C15.0855 22.9688 15.3479 22.7064 15.3479 22.3828C15.3479 22.0593 15.0855 21.7969 14.762 21.7969H4.21509C3.89153 21.7969 3.62915 22.0593 3.62915 22.3828Z" fill="#A6A6A6"/>
<path d="M15.3479 25.8984C15.3479 25.5749 15.0855 25.3125 14.762 25.3125H4.21509C3.89153 25.3125 3.62915 25.5749 3.62915 25.8984C3.62915 26.222 3.89153 26.4844 4.21509 26.4844H14.762C15.0855 26.4844 15.3479 26.222 15.3479 25.8984Z" fill="#A6A6A6"/>
<path d="M9.48853 30C9.81213 30 10.0745 29.7377 10.0745 29.4141C10.0745 29.0905 9.81213 28.8281 9.48853 28.8281C9.16492 28.8281 8.90259 29.0905 8.90259 29.4141C8.90259 29.7377 9.16492 30 9.48853 30Z" fill="#A6A6A6"/>
<path d="M12.1252 30H18.2776C18.6011 30 18.8635 29.7376 18.8635 29.4141V5.85938C18.8635 5.53582 18.6011 5.27344 18.2776 5.27344H15.3479V4.10156C15.3479 3.77801 15.0855 3.51562 14.762 3.51562H12.6981C12.7067 3.41859 12.7112 3.32092 12.7112 3.22266C12.7112 1.44568 11.2655 0 9.48853 0C7.71155 0 6.26587 1.44568 6.26587 3.22266C6.26587 3.32092 6.27026 3.41859 6.27899 3.51562H4.21509C3.89153 3.51562 3.62915 3.77801 3.62915 4.10156V5.27344H0.699463C0.375908 5.27344 0.113525 5.53582 0.113525 5.85938V29.4141C0.113525 29.7376 0.375908 30 0.699463 30H6.85181C7.17536 30 7.43775 29.7376 7.43775 29.4141C7.43775 29.0905 7.17536 28.8281 6.85181 28.8281H1.2854V6.44531H3.62915V7.61719C3.62915 7.94074 3.89153 8.20312 4.21509 8.20312H14.762C15.0855 8.20312 15.3479 7.94074 15.3479 7.61719V6.44531H17.6917V28.8281H12.1252C11.8017 28.8281 11.5393 29.0905 11.5393 29.4141C11.5393 29.7376 11.8017 30 12.1252 30ZM14.176 7.03125H4.80103V4.6875H7.00181C7.40493 4.6875 7.68935 4.28801 7.55423 3.90615C7.47694 3.68777 7.43775 3.45779 7.43775 3.22266C7.43775 2.09186 8.35773 1.17188 9.48853 1.17188C10.6193 1.17188 11.5393 2.09186 11.5393 3.22266C11.5393 3.45779 11.5001 3.68777 11.4229 3.90615C11.2885 4.2859 11.5698 4.6875 11.9752 4.6875H14.176V7.03125Z" fill="#A6A6A6"/>
</svg>
